<svg width="25" height="25" viewBox="0 0 25 25" fill="none" xmlns="http://www.w3.org/2000/svg">
<path d="M4.33153 13.7777H10.3343C10.5997 13.7777 10.8542 13.6723 11.0418 13.4847C11.2294 13.297 11.3348 13.0426 11.3348 12.7772V4.77345C11.3348 4.50811 11.2294 4.25364 11.0418 4.06601C10.8542 3.87839 10.5997 3.77298 10.3343 3.77298H4.33153C4.06618 3.77298 3.81171 3.87839 3.62409 4.06601C3.43646 4.25364 3.33105 4.50811 3.33105 4.77345V12.7772C3.33105 13.0426 3.43646 13.297 3.62409 13.4847C3.81171 13.6723 4.06618 13.7777 4.33153 13.7777ZM3.33105 20.781C3.33105 21.0463 3.43646 21.3008 3.62409 21.4884C3.81171 21.676 4.06618 21.7815 4.33153 21.7815H10.3343C10.5997 21.7815 10.8542 21.676 11.0418 21.4884C11.2294 21.3008 11.3348 21.0463 11.3348 20.781V16.7791C11.3348 16.5138 11.2294 16.2593 11.0418 16.0717C10.8542 15.884 10.5997 15.7786 10.3343 15.7786H4.33153C4.06618 15.7786 3.81171 15.884 3.62409 16.0717C3.43646 16.2593 3.33105 16.5138 3.33105 16.7791V20.781ZM13.3358 20.781C13.3358 21.0463 13.4412 21.3008 13.6288 21.4884C13.8164 21.676 14.0709 21.7815 14.3362 21.7815H20.3391C20.6044 21.7815 20.8589 21.676 21.0465 21.4884C21.2341 21.3008 21.3395 21.0463 21.3395 20.781V13.7777C21.3395 13.5123 21.2341 13.2579 21.0465 13.0702C20.8589 12.8826 20.6044 12.7772 20.3391 12.7772H14.3362C14.0709 12.7772 13.8164 12.8826 13.6288 13.0702C13.4412 13.2579 13.3358 13.5123 13.3358 13.7777V20.781ZM14.3362 10.7763H20.3391C20.6044 10.7763 20.8589 10.6709 21.0465 10.4832C21.2341 10.2956 21.3395 10.0411 21.3395 9.7758V4.77345C21.3395 4.50811 21.2341 4.25364 21.0465 4.06601C20.8589 3.87839 20.6044 3.77298 20.3391 3.77298H14.3362C14.0709 3.77298 13.8164 3.87839 13.6288 4.06601C13.4412 4.25364 13.3358 4.50811 13.3358 4.77345V9.7758C13.3358 10.0411 13.4412 10.2956 13.6288 10.4832C13.8164 10.6709 14.0709 10.7763 14.3362 10.7763Z" fill="#0053C6"/>
</svg>
