<svg width="26" height="26" viewBox="0 0 26 26" fill="none" xmlns="http://www.w3.org/2000/svg">
<path d="M20.2634 10.3835C20.1896 10.3712 20.1035 10.3712 20.0296 10.3835C18.3318 10.322 16.9785 8.9318 16.9785 7.2094C16.9785 5.45008 18.3933 4.03524 20.1527 4.03524C21.912 4.03524 23.3268 5.46238 23.3268 7.2094C23.3145 8.9318 21.9612 10.322 20.2634 10.3835Z" fill="white"/>
<path d="M18.9959 17.864C20.6814 18.1469 22.5391 17.8517 23.8432 16.9781C25.578 15.8217 25.578 13.927 23.8432 12.7706C22.5268 11.897 20.6445 11.6018 18.959 11.897" fill="white"/>
<path d="M8.41499 10.3835C8.48881 10.3712 8.57492 10.3712 8.64874 10.3835C10.3465 10.322 11.6999 8.9318 11.6999 7.2094C11.6999 5.45008 10.285 4.03524 8.52571 4.03524C6.7664 4.03524 5.35156 5.46238 5.35156 7.2094C5.36387 8.9318 6.71719 10.322 8.41499 10.3835Z" fill="white"/>
<path d="M9.68256 17.8639C7.99706 18.1468 6.13932 17.8516 4.83521 16.978C3.1005 15.8216 3.1005 13.9269 4.83521 12.7705C6.15162 11.8969 8.03396 11.6017 9.71946 11.8969" fill="white"/>
<path d="M14.3581 18.0976C14.2843 18.0853 14.1982 18.0853 14.1244 18.0976C12.4266 18.0361 11.0732 16.6459 11.0732 14.9235C11.0732 13.1641 12.4881 11.7493 14.2474 11.7493C16.0067 11.7493 17.4215 13.1764 17.4215 14.9235C17.4092 16.6459 16.0559 18.0484 14.3581 18.0976Z" fill="white"/>
<path d="M10.7776 20.4968C9.04289 21.6533 9.04289 23.5479 10.7776 24.7044C12.7461 26.0208 15.9694 26.0208 17.9379 24.7044C19.6726 23.5479 19.6726 21.6533 17.9379 20.4968C15.9817 19.1927 12.7461 19.1927 10.7776 20.4968Z" fill="white"/>
</svg>
