<svg width="25" height="25" viewBox="0 0 25 25" fill="none" xmlns="http://www.w3.org/2000/svg">
<path fill-rule="evenodd" clip-rule="evenodd" d="M7.83301 5.11659C7.83301 4.89749 10.0921 3.36577 12.3351 3.36577C14.5782 3.36577 16.8372 4.89799 16.8372 5.11659C16.8372 5.89696 16.7542 6.35918 16.6842 6.6108C16.6376 6.77587 16.4831 6.86742 16.3115 6.86742H8.35876C8.18717 6.86742 8.0326 6.77587 7.98608 6.6108C7.91605 6.35918 7.83301 5.89696 7.83301 5.11659ZM11.5848 4.86647C11.4521 4.86647 11.3249 4.91918 11.2311 5.01299C11.1372 5.1068 11.0845 5.23404 11.0845 5.36671C11.0845 5.49938 11.1372 5.62662 11.2311 5.72043C11.3249 5.81424 11.4521 5.86695 11.5848 5.86695H13.0855C13.2181 5.86695 13.3454 5.81424 13.4392 5.72043C13.533 5.62662 13.5857 5.49938 13.5857 5.36671C13.5857 5.23404 13.533 5.1068 13.4392 5.01299C13.3454 4.91918 13.2181 4.86647 13.0855 4.86647H11.5848Z" fill="white"/>
<path fill-rule="evenodd" clip-rule="evenodd" d="M8.35216 9.97788C6.68637 9.46264 7.10657 8.5422 7.74187 7.86789H17.0673C17.5755 8.51719 17.8481 9.3931 16.3119 9.91735C16.3747 10.4746 16.3197 11.0389 16.1504 11.5735C15.9811 12.1081 15.7013 12.6012 15.3292 13.0208C14.9571 13.4404 14.5009 13.777 13.9904 14.009C13.4798 14.2409 12.9261 14.363 12.3654 14.3672C11.8046 14.3714 11.2492 14.2577 10.7351 14.0335C10.2211 13.8093 9.75996 13.4795 9.38156 13.0656C9.00317 12.6517 8.71599 12.1629 8.53866 11.6309C8.36132 11.0989 8.29778 10.5355 8.35216 9.97738V9.97788ZM12.199 10.3691C13.5206 10.3691 14.5451 10.299 15.3304 10.177C15.3563 10.5848 15.2985 10.9936 15.1607 11.3784C15.023 11.7631 14.8081 12.1157 14.5293 12.4145C14.2504 12.7132 13.9135 12.9519 13.5392 13.1158C13.1648 13.2798 12.761 13.3656 12.3523 13.3679C11.9436 13.3703 11.5388 13.2892 11.1626 13.1295C10.7864 12.9699 10.4468 12.7351 10.1645 12.4396C9.88226 12.1441 9.66333 11.794 9.52114 11.4109C9.37895 11.0277 9.3165 10.6196 9.33762 10.2115C10.0695 10.3125 11.0074 10.3691 12.199 10.3691Z" fill="white"/>
<path fill-rule="evenodd" clip-rule="evenodd" d="M16.546 17.6727C16.0935 16.9667 15.4707 16.386 14.7349 15.9839C13.9991 15.5817 13.174 15.3712 12.3355 15.3716C11.4967 15.3711 10.6712 15.5816 9.93509 15.9839C9.19901 16.3862 8.57602 16.9673 8.12352 17.6737C7.95559 17.415 7.69767 17.2279 7.39968 17.1484L6.43323 16.8898C6.1129 16.8039 5.77157 16.8488 5.48432 17.0146C5.19708 17.1803 4.98743 17.4534 4.90151 17.7737L4.51333 19.2234C4.47081 19.382 4.45996 19.5475 4.4814 19.7104C4.50284 19.8732 4.55615 20.0302 4.63827 20.1724C4.7204 20.3147 4.82974 20.4394 4.96005 20.5393C5.09036 20.6393 5.23909 20.7126 5.39774 20.7551L6.3637 21.0142C6.52617 21.058 6.69583 21.0684 6.86244 21.0449C7.02906 21.0213 7.18918 20.9643 7.33315 20.8772C7.33355 21.0099 7.38664 21.1369 7.48073 21.2305C7.57482 21.324 7.70222 21.3763 7.83489 21.3759C7.96756 21.3755 8.09464 21.3224 8.18817 21.2283C8.2817 21.1342 8.33402 21.0069 8.33362 20.8742V20.3739C8.33362 20.1834 8.34713 19.9958 8.37264 19.8122L10.9759 20.51C11.0967 20.7687 11.2888 20.9875 11.5296 21.1408C11.7705 21.2941 12.05 21.3755 12.3355 21.3755C12.621 21.3755 12.9005 21.2941 13.1414 21.1408C13.3822 20.9875 13.5743 20.7687 13.6951 20.51L16.2984 19.8122C16.3239 19.9958 16.3374 20.1834 16.3374 20.3739V20.8742C16.3367 21.0069 16.3888 21.1344 16.4821 21.2286C16.5755 21.3229 16.7025 21.3763 16.8351 21.3769C16.9678 21.3776 17.0953 21.3255 17.1896 21.2322C17.2839 21.1388 17.3372 21.0119 17.3379 20.8792C17.618 21.0473 17.9642 21.1058 18.3048 21.0142L19.2713 20.7556C19.4299 20.7131 19.5786 20.6398 19.709 20.5398C19.8393 20.4399 19.9486 20.3152 20.0307 20.1729C20.1129 20.0307 20.1662 19.8737 20.1876 19.7109C20.209 19.548 20.1982 19.3825 20.1557 19.2239L19.767 17.7742C19.6811 17.4539 19.4714 17.1808 19.1842 17.0151C18.8969 16.8493 18.5556 16.8044 18.2353 16.8903L17.2688 17.1489C16.9715 17.2281 16.714 17.4145 16.546 17.6722V17.6727ZM8.63527 18.8467C8.90549 18.1932 9.3439 17.6229 9.90595 17.1936C10.468 16.7644 11.1337 16.4917 11.8353 16.4031V18.4585C11.6111 18.5381 11.409 18.6696 11.2455 18.8424C11.082 19.0152 10.9618 19.2243 10.8948 19.4525L8.63527 18.8472V18.8467ZM16.0357 18.8467C15.7655 18.1932 15.3271 17.6229 14.765 17.1937C14.203 16.7645 13.5373 16.4917 12.8357 16.4031V18.4585C13.288 18.6186 13.6411 18.9888 13.7762 19.4525L16.0357 18.8472V18.8467ZM12.3355 20.3739C12.4682 20.3739 12.5954 20.3212 12.6892 20.2274C12.783 20.1336 12.8357 20.0064 12.8357 19.8737C12.8357 19.741 12.783 19.6138 12.6892 19.52C12.5954 19.4262 12.4682 19.3735 12.3355 19.3735C12.2028 19.3735 12.0756 19.4262 11.9818 19.52C11.888 19.6138 11.8353 19.741 11.8353 19.8737C11.8353 20.0064 11.888 20.1336 11.9818 20.2274C12.0756 20.3212 12.2028 20.3739 12.3355 20.3739Z" fill="white"/>
</svg>
