<svg width="25" height="25" viewBox="0 0 25 25" fill="none" xmlns="http://www.w3.org/2000/svg">
<path d="M22.8651 10.8077C21.412 7.59207 17.7983 5.07163 18.8477 1.05274L4.72042 2.82245C4.65951 3.05544 4.60906 3.29103 4.56922 3.52853L4.05973 3.57318C3.9124 4.07698 3.81094 4.59307 3.75659 5.11515L3.39529 5.14704C3.04188 6.35549 3.02274 7.46676 3.21146 8.5165C2.50087 8.72773 1.79066 8.93933 1.08008 9.15018C1.69724 9.5141 2.2919 9.8979 2.83928 10.3091C2.77582 10.9018 2.64956 11.4861 2.4626 12.0522L4.35537 11.6256C4.65075 12.1786 4.96317 12.7224 5.29218 13.2561L3.39829 14.3591C3.96106 14.5313 4.51144 14.7238 5.02731 14.9485C5.08204 15.4424 5.08468 15.9406 5.03519 16.435L6.70172 15.6077C7.86815 17.6952 8.68416 19.8847 7.90829 22.5395C8.45867 22.2547 9.01619 21.9801 9.57332 21.7036C9.53334 22.3335 9.42375 22.9571 9.24655 23.563C13.5134 21.3565 17.9589 19.3745 22.2254 17.1681C22.3905 16.6031 22.4385 16.0347 22.4175 15.4768C22.7582 15.2956 23.1041 15.1196 23.4429 14.9361C23.8285 13.4636 23.3975 11.9861 22.8651 10.8077ZM3.88902 8.31503C3.8254 7.93285 3.79565 7.54579 3.80011 7.15836C3.85526 7.53617 3.93142 7.90834 4.03159 8.27301L3.88902 8.31503ZM4.4743 5.04575C4.51332 6.07035 4.76281 7.02818 5.14887 7.94173L4.70991 8.07229C4.44766 7.10922 4.34299 6.10975 4.4743 5.04575ZM5.90072 12.9027C5.61035 12.4309 5.33225 11.9516 5.0667 11.4654L5.36609 11.3979C5.61959 11.8555 5.88278 12.3077 6.15547 12.7541L5.90072 12.9027ZM8.8785 21.2567C9.11261 19.0177 8.34199 17.1009 7.33427 15.2937L7.6104 15.1568C8.65714 16.9606 9.5193 18.8181 9.58871 20.9063C9.35197 21.0226 9.11448 21.1378 8.8785 21.2567ZM21.6229 16.6875C19.5849 17.735 11.9628 21.3997 10.2348 22.2697C10.676 18.7629 8.9389 15.9409 7.25248 13.2002C6.84692 12.541 6.44773 11.8901 6.08118 11.2369L6.93771 11.0437C9.14112 14.2361 11.857 17.2634 10.745 21.5212C14.3452 19.5673 18.0786 17.7597 21.7159 15.8478C21.7069 16.1363 21.6818 16.4188 21.6229 16.6875ZM22.8257 14.4706C20.8339 15.5454 13.372 19.3261 11.6814 20.2213C11.9587 16.8833 10.1057 14.2856 8.3056 11.7629C6.43872 9.14643 4.67089 6.66876 5.29631 3.45912L17.9848 1.86988C17.7188 4.43346 19.1189 6.39563 20.4782 8.30078C21.1539 9.24735 21.7921 10.1418 22.2239 11.0973C22.8043 12.3812 23.0024 13.4883 22.8257 14.4706Z" fill="white"/>
<path d="M16.9679 3.50614L6.28809 5.43042C6.3256 5.70618 6.37738 5.9778 6.44416 6.24418L17.0917 4.14957C17.0387 3.93751 16.9974 3.72271 16.9679 3.50614Z" fill="white"/>
<path d="M17.4727 5.25853L6.92578 7.64615C7.03646 7.89902 7.15614 8.14926 7.2852 8.39576L17.7568 5.85056C17.6553 5.65655 17.5606 5.45909 17.4727 5.25853Z" fill="white"/>
<path d="M8.05273 9.70573C8.20661 9.94561 8.36433 10.183 8.52583 10.4178C11.9231 9.43001 15.3204 8.44254 18.7179 7.45542C18.5903 7.26941 18.4655 7.08155 18.3435 6.89191L8.05273 9.70573Z" fill="white"/>
<path d="M12.3467 17.1175C12.4105 17.3854 12.46 17.6574 12.4945 17.9343L17.1763 15.6686C17.1465 15.4222 17.1022 15.1778 17.0435 14.9366L12.3467 17.1175Z" fill="white"/>
</svg>
