<svg width="30" height="27" viewBox="0 0 30 27" fill="none" xmlns="http://www.w3.org/2000/svg">
<path d="M14.4938 13.301C14.3937 13.291 14.2737 13.291 14.1636 13.301C11.7825 13.221 9.8916 11.27 9.8916 8.86891C9.8916 6.41776 11.8725 4.42682 14.3337 4.42682C16.7848 4.42682 18.7758 6.41776 18.7758 8.86891C18.7658 11.27 16.8749 13.221 14.4938 13.301Z" fill="white"/>
<path d="M9.49164 16.993C7.0705 18.6137 7.0705 21.255 9.49164 22.8657C12.2429 24.7066 16.7551 24.7066 19.5063 22.8657C21.9275 21.245 21.9275 18.6037 19.5063 16.993C16.7651 15.1621 12.2529 15.1621 9.49164 16.993Z" fill="white"/>
<path opacity="0.4" d="M21.6979 9.69931C21.5978 9.68931 21.4778 9.68931 21.3677 9.69931C18.9866 9.61927 17.0957 7.66835 17.0957 5.26722C17.0957 2.81607 19.0766 0.825134 21.5378 0.825134C23.9889 0.825134 25.9799 2.81607 25.9799 5.26722C25.9699 7.66835 24.079 9.61927 21.6979 9.69931Z" fill="white"/>
<path opacity="0.4" d="M16.6957 13.3913C14.2746 15.012 14.2746 17.6533 16.6957 19.264C19.447 21.1049 23.9592 21.1049 26.7104 19.264C29.1316 17.6433 29.1316 15.002 26.7104 13.3913C23.9692 11.5604 19.457 11.5604 16.6957 13.3913Z" fill="white"/>
<path opacity="0.4" d="M7.29064 9.69931C7.19059 9.68931 7.07054 9.68931 6.96049 9.69931C4.57937 9.61927 2.68848 7.66835 2.68848 5.26722C2.68848 2.81607 4.66941 0.825134 7.13057 0.825134C9.58172 0.825134 11.5727 2.81607 11.5727 5.26722C11.5627 7.66835 9.67176 9.61927 7.29064 9.69931Z" fill="white"/>
<path opacity="0.4" d="M2.28851 13.3913C-0.132629 15.012 -0.132629 17.6533 2.28851 19.264C5.0398 21.1049 9.55193 21.1049 12.3032 19.264C14.7244 17.6433 14.7244 15.002 12.3032 13.3913C9.56193 11.5604 5.04981 11.5604 2.28851 13.3913Z" fill="white"/>
</svg>
