<svg width="25" height="25" viewBox="0 0 25 25" fill="none" xmlns="http://www.w3.org/2000/svg">
<path d="M22.3407 7.45984H16.3379" stroke="white" stroke-width="1.80085" stroke-miterlimit="10" stroke-linecap="round" stroke-linejoin="round"/>
<path d="M6.33294 7.45984H2.33105" stroke="white" stroke-width="1.80085" stroke-miterlimit="10" stroke-linecap="round" stroke-linejoin="round"/>
<path d="M10.3347 10.9613C12.2686 10.9613 13.8363 9.39355 13.8363 7.45964C13.8363 5.52573 12.2686 3.95799 10.3347 3.95799C8.40075 3.95799 6.83301 5.52573 6.83301 7.45964C6.83301 9.39355 8.40075 10.9613 10.3347 10.9613Z" stroke="white" stroke-width="1.80085" stroke-miterlimit="10" stroke-linecap="round" stroke-linejoin="round"/>
<path d="M22.3408 18.4649H18.3389" stroke="white" stroke-width="1.80085" stroke-miterlimit="10" stroke-linecap="round" stroke-linejoin="round"/>
<path d="M8.33388 18.4649H2.33105" stroke="white" stroke-width="1.80085" stroke-miterlimit="10" stroke-linecap="round" stroke-linejoin="round"/>
<path d="M14.3366 21.9666C16.2705 21.9666 17.8383 20.3988 17.8383 18.4649C17.8383 16.531 16.2705 14.9633 14.3366 14.9633C12.4027 14.9633 10.835 16.531 10.835 18.4649C10.835 20.3988 12.4027 21.9666 14.3366 21.9666Z" stroke="white" stroke-width="1.80085" stroke-miterlimit="10" stroke-linecap="round" stroke-linejoin="round"/>
</svg>
