<svg width="25" height="25" viewBox="0 0 25 25" fill="none" xmlns="http://www.w3.org/2000/svg">
<g clip-path="url(#clip0_458_7787)">
<path d="M17.8771 0.895218C15.8371 0.895218 14.1831 2.55107 14.1831 4.58926C14.1831 7.05042 17.4154 10.4129 17.4154 13.7957H18.3389C18.3398 10.4129 21.5712 7.14739 21.5712 4.58926C21.5712 2.55107 19.9171 0.895218 17.8771 0.895218ZM17.8771 2.68498C18.1273 2.6851 18.375 2.7345 18.6061 2.83036C18.8372 2.92622 19.0472 3.06666 19.224 3.24366C19.4009 3.42066 19.5411 3.63075 19.6367 3.86195C19.7324 4.09315 19.7815 4.34092 19.7814 4.59111C19.7813 4.84131 19.7319 5.08903 19.636 5.32013C19.5402 5.55123 19.3997 5.76119 19.2227 5.93802C19.0457 6.11485 18.8356 6.25509 18.6044 6.35072C18.3732 6.44635 18.1255 6.49551 17.8753 6.49539C17.3699 6.49515 16.8852 6.29414 16.528 5.93658C16.1708 5.57903 15.9703 5.09422 15.9705 4.5888C15.9708 4.08339 16.1718 3.59877 16.5293 3.24156C16.8869 2.88435 17.3717 2.68381 17.8771 2.68406V2.68498ZM12.336 2.74224C6.22517 2.74224 1.25391 7.7135 1.25391 13.8244C1.25391 19.9353 6.22517 24.9065 12.336 24.9065C18.4469 24.9065 23.4182 19.9353 23.4182 13.8244C23.4182 11.9681 22.9583 10.2264 22.1484 8.68688C22.0255 8.93069 21.9018 9.16249 21.7734 9.40907C21.5305 9.87821 21.2747 10.352 21.0512 10.823C21.2821 11.4833 21.4409 12.1815 21.513 12.9009H20.3013C20.2348 13.2102 20.1859 13.5011 20.1859 13.7957V14.7479H21.5139C21.3886 16.0499 20.9848 17.3097 20.33 18.4419H17.6185C17.8217 17.5757 17.939 16.618 18.0221 15.6428H16.2028C16.1167 16.5877 15.953 17.5239 15.7133 18.4419H8.95876C8.64665 17.2333 8.46278 15.9951 8.4102 14.7479H15.5674V13.7957C15.5603 13.4942 15.5216 13.1943 15.452 12.9009H8.41112C8.46371 11.6537 8.64758 10.4155 8.95969 9.20682H13.8949C13.5746 8.60192 13.2758 7.98586 12.9991 7.3598H9.59414C10.3579 5.61713 11.3673 4.58926 12.336 4.58926C12.336 3.94742 12.4515 3.34437 12.6537 2.77087C12.5475 2.76718 12.4432 2.74224 12.336 2.74224ZM8.52656 5.42597C8.15878 6.0402 7.84958 6.68766 7.60305 7.3598H5.75602C6.55264 6.55015 7.49189 5.89455 8.52656 5.42597ZM4.34213 9.20682H7.05356C6.77424 10.42 6.61005 11.6568 6.56317 12.9009H3.15819C3.28307 11.5988 3.68687 10.3389 4.34213 9.20682ZM3.15819 14.7479H6.5641C6.61858 16.0639 6.78851 17.306 7.05448 18.4419H4.34213C3.68766 17.3095 3.28392 16.0498 3.15819 14.7479ZM5.75602 20.289H7.60305C7.86902 21.0056 8.18024 21.6493 8.52656 22.2228C7.49189 21.7542 6.55264 21.0986 5.75602 20.289ZM9.59414 20.289H15.0779C14.3142 22.0316 13.3048 23.0595 12.336 23.0595C11.3673 23.0595 10.357 22.0316 9.59414 20.289ZM17.069 20.289H18.9161C18.1195 21.0986 17.1802 21.7542 16.1455 22.2228C16.4918 21.6502 16.8031 21.0065 17.069 20.289Z" fill="white"/>
</g>
<defs>
<clipPath id="clip0_458_7787">
<rect width="24.0113" height="24.0113" fill="white" transform="translate(0.330078 0.895142)"/>
</clipPath>
</defs>
</svg>
